<svg width="100" height="100" viewBox="0 0 100 100" fill="none" xmlns="http://www.w3.org/2000/svg">
<path d="M32.4998 8.33301H67.4998C80.8331 8.33301 91.6665 19.1663 91.6665 32.4997V67.4997C91.6665 73.9091 89.1203 80.056 84.5882 84.5881C80.0561 89.1202 73.9092 91.6663 67.4998 91.6663H32.4998C19.1664 91.6663 8.33311 80.833 8.33311 67.4997V32.4997C8.33311 26.0903 10.8792 19.9434 15.4114 15.4113C19.9435 10.8791 26.0904 8.33301 32.4998 8.33301ZM31.6664 16.6663C27.6882 16.6663 23.8729 18.2467 21.0598 21.0597C18.2468 23.8728 16.6664 27.6881 16.6664 31.6663V68.333C16.6664 76.6247 23.3748 83.333 31.6664 83.333H68.3331C72.3114 83.333 76.1267 81.7527 78.9397 78.9396C81.7528 76.1266 83.3331 72.3113 83.3331 68.333V31.6663C83.3331 23.3747 76.6248 16.6663 68.3331 16.6663H31.6664ZM71.8748 22.9163C73.2561 22.9163 74.5809 23.4651 75.5576 24.4418C76.5344 25.4186 77.0831 26.7433 77.0831 28.1247C77.0831 29.506 76.5344 30.8308 75.5576 31.8075C74.5809 32.7843 73.2561 33.333 71.8748 33.333C70.4935 33.333 69.1687 32.7843 68.1919 31.8075C67.2152 30.8308 66.6665 29.506 66.6665 28.1247C66.6665 26.7433 67.2152 25.4186 68.1919 24.4418C69.1687 23.4651 70.4935 22.9163 71.8748 22.9163ZM49.9998 29.1663C55.5251 29.1663 60.8242 31.3613 64.7312 35.2683C68.6382 39.1753 70.8331 44.4743 70.8331 49.9997C70.8331 55.525 68.6382 60.8241 64.7312 64.7311C60.8242 68.6381 55.5251 70.833 49.9998 70.833C44.4744 70.833 39.1754 68.6381 35.2684 64.7311C31.3614 60.8241 29.1664 55.525 29.1664 49.9997C29.1664 44.4743 31.3614 39.1753 35.2684 35.2683C39.1754 31.3613 44.4744 29.1663 49.9998 29.1663ZM49.9998 37.4997C46.6846 37.4997 43.5052 38.8166 41.1609 41.1608C38.8167 43.505 37.4998 46.6845 37.4998 49.9997C37.4998 53.3149 38.8167 56.4943 41.1609 58.8385C43.5052 61.1827 46.6846 62.4997 49.9998 62.4997C53.315 62.4997 56.4944 61.1827 58.8386 58.8385C61.1828 56.4943 62.4998 53.3149 62.4998 49.9997C62.4998 46.6845 61.1828 43.505 58.8386 41.1608C56.4944 38.8166 53.315 37.4997 49.9998 37.4997Z" fill="#158CA4"/>
</svg>
