<svg width="24" height="24" viewBox="0 0 24 24" fill="none" xmlns="http://www.w3.org/2000/svg">
<path fill-rule="evenodd" clip-rule="evenodd" d="M15.488 4.43042C15.5628 4.49455 15.6243 4.57279 15.6688 4.66068C15.7134 4.74857 15.7402 4.84438 15.7477 4.94263C15.7553 5.04089 15.7434 5.13966 15.7127 5.23331C15.682 5.32696 15.6332 5.41365 15.569 5.48842L9.988 12.0004L15.569 18.5124C15.6369 18.5866 15.6892 18.6736 15.7228 18.7684C15.7564 18.8632 15.7706 18.9637 15.7645 19.0641C15.7585 19.1644 15.7323 19.2626 15.6876 19.3526C15.6428 19.4426 15.5805 19.5228 15.5041 19.5882C15.4278 19.6537 15.3391 19.7031 15.2433 19.7336C15.1475 19.7641 15.0465 19.775 14.9464 19.7657C14.8463 19.7564 14.7491 19.7271 14.6605 19.6794C14.572 19.6318 14.4939 19.5668 14.431 19.4884L8.431 12.4884C8.31453 12.3525 8.25052 12.1794 8.25052 12.0004C8.25052 11.8214 8.31453 11.6483 8.431 11.5124L14.431 4.51242C14.5605 4.3616 14.7445 4.26836 14.9427 4.25317C15.1409 4.23798 15.337 4.30209 15.488 4.43142" fill="#158CA4"/>
</svg>
