<svg width="473" height="338" viewBox="0 0 473 338" fill="none" xmlns="http://www.w3.org/2000/svg">
<path fill-rule="evenodd" clip-rule="evenodd" d="M92.8152 5.75C91.8672 8.912 90.9972 11.899 90.8822 12.386C90.7673 12.874 88.8933 13.352 86.7193 13.449C84.5443 13.546 80.4872 13.981 77.7032 14.416L72.6432 15.207L71.4533 11.238C70.7993 9.05401 70.2643 6.533 70.2643 5.634C70.2643 4.735 69.8143 4 69.2643 4C68.7142 4 68.2643 4.398 68.2643 4.883C68.2643 5.369 67.4393 5.983 66.4303 6.246C65.0983 6.595 64.2282 8.457 63.2563 13.036C62.5203 16.507 61.0953 20.169 60.0913 21.173C58.0413 23.223 55.2103 23.546 53.5793 21.915C51.9623 20.298 46.4003 23.513 45.1563 26.784C44.1623 29.399 42.3013 31.456 39.0793 33.5C23.0283 43.684 11.6883 57.601 9.94925 69.25C9.58825 71.669 8.12625 74.331 5.82925 76.75C3.87025 78.813 2.01125 81.288 1.69825 82.25C1.38525 83.212 0.810252 84 0.420252 84C0.0302523 84 -0.114746 85.825 0.0982537 88.055C0.442254 91.662 0.666255 91.965 2.12425 90.794C5.50425 88.081 10.4713 85.81 11.2113 86.64C11.6333 87.113 13.0553 89.525 14.3713 92C15.6873 94.475 18.6763 99.341 21.0143 102.813C23.3513 106.285 25.2643 109.314 25.2643 109.544C25.2643 109.773 26.8393 112.423 28.7643 115.433C30.6893 118.442 32.2643 121.376 32.2643 121.952C32.2643 123.485 25.1763 123.165 22.2643 121.5C20.8893 120.714 19.4133 120.055 18.9843 120.035C18.0643 119.994 22.3073 128.157 23.7643 129.232C24.3143 129.638 24.3943 129.976 23.9413 129.985C23.4893 129.993 24.0453 131.178 25.1783 132.618C26.3103 134.057 26.9483 135.702 26.5963 136.272C26.2433 136.842 26.4303 137.015 27.0113 136.656C27.6223 136.279 28.8483 137.901 29.9163 140.498C30.9323 142.97 32.0873 144.994 32.4833 144.996C32.8783 144.998 32.9603 145.629 32.6643 146.399C32.3693 147.168 32.6083 148.095 33.1963 148.458C33.7833 148.821 34.2573 149.879 34.2493 150.809C34.2353 152.266 34.0993 152.293 33.2643 151C32.4023 149.667 32.2953 149.667 32.2953 151C32.2953 154.396 33.7413 155.129 38.3493 154.067C40.7773 153.507 43.1593 153.038 43.6423 153.024C44.8173 152.992 43.6223 160.119 41.8583 163.666C41.0833 165.225 39.9053 167.85 39.2413 169.5C38.5763 171.15 37.7213 173.175 37.3423 174C36.9623 174.825 34.2013 176.746 31.2083 178.269C28.2143 179.792 25.2323 181.748 24.5833 182.616C22.7683 185.04 24.1213 186.998 27.6213 187.014C35.4213 187.048 35.2623 186.75 35.2793 201.367C35.2933 214.021 35.4393 214.933 39.2913 226.382L43.2893 238.263L39.7773 242.632C37.8453 245.034 34.6033 249.064 32.5733 251.587L28.8813 256.173L31.8863 254.337C33.5393 253.326 36.4383 251.489 38.3283 250.254C43.7683 246.697 44.2493 247.132 42.7483 254.25C42.0233 257.688 40.8703 263.367 40.1853 266.87C39.2833 271.483 37.5813 275.321 34.0143 280.785C28.5773 289.114 26.4513 293.598 28.5173 292.378C29.2033 291.973 31.2393 290.535 33.0413 289.181C34.8443 287.828 36.5653 286.968 36.8673 287.269C37.1683 287.571 37.6373 289.752 37.9093 292.116C38.1803 294.48 38.5763 296.696 38.7893 297.04C39.0023 297.384 38.0543 299.316 36.6843 301.333L34.1923 305H38.1693C44.1483 305 44.2943 306.782 38.7173 311.689C33.3323 316.428 33.3213 316.71 38.6103 314.5C40.5843 313.675 43.1203 313 44.2453 313C46.2063 313 46.2293 313.149 44.7843 316.607L43.2773 320.214L45.7093 319.603C47.0473 319.267 48.4213 319.444 48.7623 319.996C49.1033 320.548 50.9013 321 52.7583 321C57.1903 321 60.1433 322.199 63.5663 325.389C65.1063 326.825 67.4313 328 68.7323 328C70.0333 328 71.2982 328.562 71.5443 329.25C72.4993 331.924 73.1102 329.249 72.3322 325.801C71.3352 321.381 72.7122 321.554 76.0143 326.263C78.3973 329.662 78.8673 328.588 77.3343 323.245C76.6203 320.756 76.7533 319.654 77.9062 318.501C78.7312 317.676 79.7883 317 80.2543 317C80.7193 317 81.7793 316.74 82.6093 316.421C83.5443 316.063 84.6213 316.728 85.4413 318.171C86.9333 320.797 89.2253 321.188 90.8623 319.097C91.4663 318.326 92.4503 317.997 93.0473 318.366C94.4543 319.235 98.6743 313.568 100.226 308.725C100.892 306.648 102.432 303.723 103.65 302.225C104.868 300.726 107.406 296.22 109.29 292.21C112.052 286.332 113.108 284.976 114.74 285.21C116.474 285.458 116.808 286.359 117.069 291.5C117.378 297.585 119.264 301.96 119.264 296.593C119.264 294.509 119.65 293.934 120.764 294.362C121.749 294.74 122.264 294.33 122.264 293.169C122.264 292.196 122.804 290.86 123.464 290.2C124.397 289.267 124.311 289 123.077 289C122.077 289 121.327 287.885 121.048 285.985C120.706 283.651 121.587 281.507 124.945 276.501C129.46 269.77 131.91 267.668 136.463 266.613L139.163 265.987L136.14 269.244C133.004 272.621 130.076 277.681 128.757 282C128.15 283.987 128.688 283.648 131.379 280.347C137.717 272.571 152.792 264.73 157.749 266.633C159.002 267.113 159.402 266.913 159.085 265.964C158.421 263.971 153.458 262.885 147.764 263.487L142.764 264.015L147.264 261.899C149.739 260.735 152.889 259.253 154.264 258.605C157.621 257.024 159.463 252.86 159.417 246.957C159.374 241.353 158.092 238.394 154.386 235.34C151.283 232.783 151.708 232.105 156.89 231.349C159.021 231.038 162.614 229.923 164.875 228.87C167.136 227.817 169.7 227.23 170.573 227.565C171.584 227.953 173.307 227.002 175.316 224.946C177.794 222.412 178.656 222.015 179.326 223.101C179.796 223.861 179.948 225.41 179.664 226.542C179.291 228.029 179.856 228.979 181.704 229.968C183.11 230.721 184.374 231.148 184.512 230.918C184.651 230.688 185.664 228.733 186.764 226.573L188.764 222.647L196.764 222.874C201.164 222.999 206.194 223.607 207.941 224.225C210.775 225.227 211.497 225.06 214.624 222.674C218.303 219.869 222.933 219.217 226.319 221.03C229.893 222.942 231.613 227.934 231.461 235.952C231.356 241.517 231.724 243.851 232.914 245.165C235.099 247.58 234.025 249.68 229.545 251.751C221.33 255.551 221.795 258 230.732 258C237.998 258 238.709 258.657 242.246 268.645L244.319 274.5L241.918 276.5C240.598 277.6 238.125 279.608 236.424 280.962C232.375 284.184 233.759 284.93 242.877 284.442C249.213 284.102 250.22 284.285 250.72 285.861C252.275 290.759 265.902 301 270.866 301C272.643 301 272.634 304.349 270.843 309.497C269.439 313.532 269.784 316.366 271.374 313.857C272.028 312.824 272.237 312.804 272.249 313.774C272.257 314.474 274.627 312.582 277.514 309.568C283.198 303.635 283.545 303.521 298.997 302.55C302.788 302.312 308.463 300.912 313.483 298.976C323.487 295.118 328.834 295.256 333.25 299.486C337.829 303.873 337.695 305.527 332.422 309.723C329.86 311.762 327.566 313.569 327.324 313.739C327.081 313.909 327.585 314.749 328.442 315.607C329.725 316.89 330.69 316.975 333.883 316.089C340.133 314.353 342.848 314.716 344.693 317.532C345.605 318.924 346.731 319.829 347.195 319.543C347.658 319.256 348.561 319.653 349.2 320.423C352.052 323.859 366.116 324.755 371.551 321.846C372.924 321.112 374.222 321.591 377.157 323.915C381.17 327.094 386.175 329.423 387.069 328.528C387.36 328.238 387.024 328 386.324 328C385.57 328 385.299 327.35 385.66 326.409C385.996 325.534 385.366 323.547 384.259 321.993C380.507 316.724 380.612 313.657 384.733 308.043C386.769 305.269 389.055 303 389.814 303C390.573 303 392.86 304.462 394.896 306.25C397.172 308.248 398.751 309.04 398.995 308.306C399.214 307.65 400.069 307.372 400.894 307.688C402.029 308.124 401.893 307.44 400.333 304.882C397.808 300.741 397.709 298.438 400.014 297.506C400.977 297.117 406.714 296.587 412.764 296.329C422.977 295.892 428.264 294.727 428.264 292.913C428.264 292.501 425.082 291.344 421.192 290.342L414.121 288.52L416.606 286.51C417.973 285.405 420.977 283.15 423.28 281.5C425.584 279.85 430.133 275.503 433.389 271.841C438.811 265.742 439.579 265.224 442.525 265.688C444.294 265.967 446.984 266.838 448.502 267.623C451.181 269.008 451.264 268.972 451.264 266.412C451.264 264.573 450.001 262.65 447.1 260.076C443.012 256.448 442.959 256.318 444.206 252.94C445.924 248.285 447.317 218.285 445.968 215C445.403 213.625 445.029 212.116 445.137 211.646C445.245 211.177 445.035 209.852 444.67 208.703C444.079 206.843 443.787 207.047 442.016 210.556C440.922 212.725 439.323 215.301 438.463 216.28C436.995 217.952 436.788 217.814 435.042 214.005C433.576 210.808 433.385 209.22 434.139 206.491C435.05 203.19 439.246 196.764 439.281 198.615C439.29 199.102 440.234 198.038 441.379 196.25C442.524 194.462 443.866 193 444.362 193C445.111 193 445.803 198.589 445.382 201.25C445.098 203.053 446.449 201.617 450.086 196.25C452.229 193.087 454.911 188.674 456.046 186.442C458.077 182.446 458.079 182.366 456.179 181.179C454.304 180.008 454.331 179.81 457.132 174.237C460.4 167.735 461.733 162.81 461.352 158.64C461.137 156.295 462.096 154.851 466.677 150.622C471.839 145.856 473.836 142 471.142 142C470.366 142 470.404 141.536 471.264 140.5C472.888 138.543 472.353 138.605 467.123 140.978C460.437 144.012 458.27 143.569 454.499 138.4C450.848 133.394 450.937 132.838 456.529 125.704C458.166 123.616 459.201 121.604 458.83 121.233C458.459 120.862 457.737 121.22 457.225 122.029C456.521 123.142 456.291 122.82 456.279 120.708L456.264 117.916L451.926 120.458C449.54 121.856 446.829 123 445.901 123C443.041 123 441.974 118.284 443.073 110.5C444.351 101.445 443.79 90.945 441.742 85.581C440.136 81.376 440.151 81.265 443.191 74.989C446.65 67.85 446.921 66.534 444.764 67.362C443.723 67.761 443.264 67.292 443.264 65.832C443.264 64.032 442.545 64.399 438.307 68.363C432.91 73.411 431.647 73.767 427.232 71.483C425.618 70.649 422.226 69.682 419.693 69.335C417.16 68.988 414.867 68.128 414.597 67.425C414.327 66.721 414.983 64.163 416.055 61.74C417.286 58.956 417.592 57.319 416.884 57.294C416.268 57.272 415.314 57.144 414.764 57.009C411.49 56.205 408.003 57.591 402.052 62.061C395.393 67.062 395.307 67.093 391.302 65.893C389.081 65.228 387.264 64.335 387.264 63.909C387.264 63.483 386.364 62.849 385.264 62.5C382.39 61.588 382.75 58.01 386.193 53.257L389.121 49.214L386.918 47.144L384.714 45.074L380.569 47.546C376.791 49.799 376.285 49.878 374.844 48.437C372.761 46.354 372.78 46.301 376.264 44.5C382.182 41.439 378.661 37.603 369.102 36.699C365.82 36.388 361.592 35.131 359.042 33.707C353.467 30.595 341.172 26.411 335.09 25.557C332.469 25.189 328.516 23.613 326.09 21.968C320.067 17.886 315.709 18.014 309.908 22.442C307.428 24.335 303.681 26.175 301.581 26.529C299.482 26.884 296.931 27.405 295.914 27.687C294.3 28.133 294.408 27.611 296.759 23.599C298.241 21.07 298.961 19 298.359 19C297.757 19 297.264 19.477 297.264 20.059C297.264 20.641 296.88 20.881 296.411 20.591C295.942 20.301 294.705 20.71 293.661 21.5C292.618 22.29 291.192 22.951 290.492 22.968C289.793 22.986 285.293 24.805 280.492 27.01C273.878 30.049 270.596 32.289 266.944 36.26L262.124 41.5L262.807 35.121C263.298 30.541 263.176 28.936 262.377 29.43C261.765 29.808 261.264 31.006 261.264 32.09C261.264 33.175 260.616 34.311 259.825 34.615C259.034 34.919 258.098 36.48 257.745 38.084C257.035 41.32 253.198 43.02 250.903 41.115C249.891 40.276 249.13 40.491 247.761 42.004C245.441 44.567 243.95 44.565 244.764 42C245.214 40.581 244.944 40 243.831 40C242.969 40 242.264 40.765 242.264 41.7C242.264 45.026 240.038 41.264 238.786 35.823L237.561 30.5L236.342 36.25C235.129 41.97 234.528 42.78 232.714 41.142C232.192 40.67 228.839 39.711 225.264 39.012C216.94 37.383 214.688 35.926 212.029 30.454C210.314 26.923 209.337 25.997 207.315 25.985C205.912 25.976 204.152 25.581 203.403 25.107C201.1 23.648 198.937 24.971 194.493 30.561C189.923 36.311 188.749 36.839 176.413 38.686C168.966 39.801 168.521 39.357 170.755 33.026C171.989 29.528 172.045 28.48 171.033 27.844C168.668 26.357 165.783 28.243 158.537 36.014C153.87 41.019 149.84 44.353 147.162 45.424C144.881 46.337 142.838 46.907 142.621 46.691C142.405 46.475 143.127 44.318 144.224 41.899C146.718 36.402 146.927 32.532 144.682 33.393C143.812 33.727 142.436 34 141.623 34C140.811 34 140.424 34.45 140.764 35C141.104 35.55 140.68 36 139.823 36C138.966 36 138.264 36.431 138.264 36.958C138.264 38.591 129.75 43 126.596 43C124.205 43 123.01 42.146 120.651 38.75C119.028 36.412 117.039 33.187 116.232 31.583C115.424 29.978 112.13 25.756 108.912 22.2L103.059 15.734L103.728 9.492C104.393 3.279 104.383 3.24601 101.58 2.46201C100.031 2.02901 98.2023 1.767 97.5143 1.881C96.8273 1.995 96.2643 1.61801 96.2643 1.04401C96.2643 0.470006 95.8762 0 95.4012 0C94.9262 0 93.7622 2.588 92.8152 5.75ZM82.2643 21.065C74.8392 23.743 63.8143 28.416 57.7643 31.447C45.8393 37.422 27.5513 50.511 21.8973 57.116C17.8943 61.792 13.6673 72.803 15.2633 74.399C15.8133 74.949 16.2643 77.132 16.2643 79.25C16.2643 84.219 18.2523 87.965 23.1063 92.142C25.9023 94.548 31.1553 102.812 41.6363 121.295C49.6813 135.483 56.2643 147.378 56.2643 147.73C56.2643 148.081 57.2163 150.334 58.3783 152.736C59.5413 155.139 60.3293 157.193 60.1283 157.302C59.9283 157.411 57.9643 158.454 55.7643 159.62C50.9793 162.157 45.7383 168.634 44.3103 173.775C42.7633 179.345 43.0413 188.907 44.9023 194.097C46.5053 198.572 46.4903 198.775 44.3383 201.686C39.9863 207.573 39.8493 216.229 44.0183 221.923C45.5273 223.983 49.3693 226.445 56.0833 229.652C56.2593 229.736 53.8543 241.646 50.7393 256.118C44.0843 287.033 43.6103 290.734 45.2133 299.231L46.4243 305.645L57.5253 310.343L68.6263 315.042L71.7432 312.021C74.4613 309.386 75.5793 309 80.4973 309C83.5973 309 87.4013 308.522 88.9492 307.939C93.0693 306.385 98.0712 301.159 98.8452 297.599C99.2162 295.894 100.924 292.538 102.641 290.141C105.51 286.136 105.792 285.025 106.107 276.497C106.447 267.285 106.471 267.209 109.188 266.665C110.694 266.364 113.382 264.758 115.16 263.097C118.26 260.201 118.604 260.116 123.469 261.039C126.851 261.68 129.838 261.653 132.419 260.958C134.55 260.384 137.818 260.201 139.681 260.55L143.068 261.186L144.768 255.343C147.559 245.75 147.643 243.644 145.428 238.638C144.077 235.584 142.161 233.282 139.82 231.9C135.631 229.429 135.472 228.029 138.514 220.416L140.764 214.785L149.654 215.439C158.217 216.069 158.774 215.979 164.782 212.991C168.212 211.285 172.043 208.799 173.295 207.467L175.571 205.044L179.528 208.619C191.805 219.711 208.211 219.84 219.526 208.935L224.476 204.163L228.583 205.612C230.842 206.409 235.969 207.339 239.977 207.677C243.985 208.016 247.264 208.427 247.264 208.59C247.264 208.752 246.368 210.404 245.273 212.26C238.541 223.67 236.984 238.339 241.465 248.128C242.878 251.215 245.745 255.634 247.836 257.948C251.282 261.763 251.614 262.616 251.377 267.069C251.03 273.619 253.5 281.661 257.25 286.186C258.93 288.214 262.883 291.139 266.034 292.686C271.463 295.352 272.473 295.499 285.264 295.486C296.524 295.475 299.986 295.091 306.131 293.172C316.549 289.919 323.402 286.727 331.435 281.387L338.409 276.75L341.321 280.125C344.043 283.28 344.185 283.858 343.498 289C342.339 297.681 342.939 303.779 345.45 308.83C351.559 321.124 368.411 323.685 374.539 313.252C375.515 311.59 376.976 307.686 377.786 304.575C378.597 301.465 380.525 296.35 382.072 293.21L384.884 287.5L392.585 286.87C398.684 286.37 401.999 285.416 408.525 282.281C438.131 268.059 450.284 232.182 429.788 219.509C425.578 216.906 423.9 216.483 417.343 216.373C404.696 216.162 399.527 215.109 398.987 212.634C398.731 211.46 398.19 209.712 397.786 208.75C397.183 207.317 397.574 207 399.947 207C404.843 207 414.394 204.149 422.264 200.338C438.228 192.609 455.045 170.48 455.96 156C456.292 150.736 455.988 148.89 454.356 146.29C452.027 142.578 445.665 139 441.392 139C438.695 139 438.379 138.632 437.74 134.75C436.745 128.706 434.995 124.902 431.246 120.632L427.977 116.909L430.567 114.205C435.247 109.318 437.7 102.338 437.734 93.818C437.762 86.641 437.567 85.927 434.764 82.938C429.062 76.859 424.476 75.566 409.264 75.751C401.839 75.841 391.421 76.509 386.112 77.236L376.46 78.557L376.08 71.529C375.085 53.133 359.51 37.606 337.926 33.493C311.884 28.532 281.981 36.714 250.039 57.541C241.974 62.8 241.743 62.881 240.938 60.719C236.889 49.848 231.742 46.341 217.669 44.864C191.459 42.114 158.553 47.874 133.354 59.625C128.178 62.039 123.856 63.898 123.749 63.757C123.641 63.615 121.159 59.45 118.232 54.5C114.18 47.649 112.739 44.124 112.194 39.735C111.379 33.169 108.05 27.958 103.336 25.872C101.519 25.067 99.6992 23.073 98.6432 20.731C97.6933 18.626 96.6573 16.744 96.3403 16.549C96.0233 16.354 89.6893 18.386 82.2643 21.065ZM121.895 24.552C120.867 27.051 120.263 29.332 120.552 29.622C121.127 30.197 127.264 27.274 127.264 26.425C127.264 25.794 124.307 19.998 123.988 20.004C123.865 20.006 122.923 22.052 121.895 24.552ZM81.8802 26.991C75.8942 29.13 67.2122 32.695 62.5873 34.914C44.6613 43.516 23.8853 60.375 21.5763 68.194C20.9762 70.226 20.7063 72.108 20.9753 72.378C21.2443 72.647 21.5433 75.212 21.6383 78.079C21.7993 82.915 22.1423 83.587 26.3853 87.395C29.9283 90.575 34.3473 97.501 45.9933 118.127C54.2623 132.772 61.5633 146.377 62.2183 148.361C64.0763 153.989 67.4032 156 74.8582 156H81.1813L78.0923 160.97L75.0033 165.94L72.4982 163.97C65.3422 158.34 52.1503 165.282 49.2023 176.229C47.7913 181.47 48.3683 189.497 50.4563 193.683C52.3793 197.538 51.7423 201.569 48.6163 205.327C44.6803 210.057 45.8763 217.577 51.2183 221.69C52.0683 222.345 54.4263 223.168 56.4563 223.518C63.1463 224.674 63.1463 224.244 56.4873 255.272C49.1583 289.425 48.9843 290.597 50.3203 296.826L51.3813 301.772L58.8003 304.886C67.6333 308.594 67.9753 308.62 70.9703 305.807C72.8713 304.021 74.5553 303.598 80.0343 303.529C89.4453 303.412 94.2643 299.697 94.2643 292.56C94.2643 291.27 94.9583 289.948 95.8063 289.622C99.0353 288.383 101.219 281.003 101.242 271.25L101.264 262H104.687C108.929 262 113.863 258.101 114.754 254.046L115.391 251.146L118.967 253.573C122.99 256.303 127.724 256.672 134.722 254.8C139.644 253.484 141.264 250.877 141.264 244.274C141.264 240.901 140.433 239.81 133.068 233.515C130.537 231.353 130.981 225.363 134.38 215.783L136.764 209.066L147.909 209.68C158.346 210.254 159.299 210.146 162.909 207.989C165.029 206.722 168.114 204.462 169.764 202.966C174.614 198.569 177.506 198.633 181.957 203.234C192.377 214.005 206.886 214.558 216.125 204.535C218.402 202.065 220.264 199.36 220.264 198.522C220.264 196.903 222.784 196.415 223.678 197.861C224.452 199.113 234.81 201.799 241.764 202.55C247.172 203.134 256.17 202.154 260.36 200.525C261.238 200.184 259.759 202.244 257.075 205.103C254.39 207.963 250.522 213.722 248.479 217.901C245.029 224.958 244.764 226.142 244.768 234.5C244.772 244.812 245.963 247.888 252.623 254.794C256.748 259.072 256.764 259.119 256.764 266.794C256.764 276.072 258.902 280.937 265.048 285.65C279.702 296.884 317.09 288.794 337.011 270.077L341.257 266.087L342.387 270.573C343.46 274.833 347.333 280.187 349.994 281.085C350.946 281.406 350.89 282.607 349.744 286.409C347.735 293.073 347.855 301.679 350.016 305.98C354.303 314.513 366.578 316.888 370.314 309.906C370.917 308.779 372.047 305.416 372.824 302.431C373.601 299.447 375.944 293.614 378.029 289.469L381.821 281.932L390.024 281.639C397.331 281.378 399.147 280.889 406.659 277.167C422.642 269.247 433.425 254.843 434.055 240.573C434.405 232.657 432.699 228.059 428.184 224.753C424.558 222.097 418.504 220.931 413.824 221.986C411.259 222.565 409.198 222.5 407.887 221.798C406.783 221.207 403.102 220.673 399.708 220.612L393.537 220.5L394.008 216.931C394.375 214.146 393.935 212.73 392.006 210.487C389.843 207.972 388.702 207.559 382.889 207.189C378.887 206.934 375.047 207.261 373.236 208.012C369.768 209.448 365.174 214.877 362.982 220.128C360.608 225.817 359.575 225.554 358.414 218.96C357.264 212.435 353.375 204.393 349.699 200.939L347.396 198.776L352.431 195.388C355.2 193.525 357.675 192 357.931 192C358.188 192 359.895 193.143 361.726 194.539C367.464 198.916 375.723 201.24 387.408 201.768C410.053 202.79 428.22 194.787 439.569 178.788C445.773 170.044 451.264 158.714 451.264 154.66C451.264 150.199 448.105 146.332 443.278 144.886C439.955 143.891 438.85 143.996 435.563 145.622L431.726 147.521L432.103 140.852C432.568 132.609 431.204 128.275 426.677 123.613C421.653 118.44 417.735 116.74 409.618 116.214C396.644 115.372 385.389 119.671 374.304 129.702L368.264 135.168V132.17C368.264 129.841 369.137 128.531 372.184 126.29C374.34 124.705 378.262 120.841 380.899 117.704L385.695 112L392.73 111.994C396.598 111.991 404.38 112.523 410.023 113.175C423.127 114.691 425.833 113.674 429.601 105.817C434.951 94.662 433.917 87.041 426.558 83.385C423.309 81.771 420.54 81.511 407.264 81.576C393.774 81.642 376.435 83.413 367.622 85.625C365.863 86.067 365.264 85.8 365.264 84.577C365.264 83.675 365.956 82.672 366.801 82.347C369.043 81.487 371.264 76.63 371.264 72.587C371.264 61.347 359.853 46.787 347.066 41.71C318.482 30.36 280.553 41.078 237.4 72.699C235.928 73.777 235.761 73.203 235.733 66.981C235.698 59.161 234.02 55.952 228.159 52.5C225.034 50.659 223.014 50.504 202.764 50.547C183.85 50.587 179.361 50.904 170.764 52.807C156.646 55.932 143.965 60.331 132.575 66.054C127.179 68.766 122.481 70.988 122.135 70.992C121.789 70.997 118.227 65.262 114.219 58.25C108.505 48.25 106.975 44.732 107.128 41.941C107.373 37.458 103.893 32.016 99.5533 30.094C97.7893 29.313 95.8542 27.424 95.1992 25.844C94.5512 24.28 93.7383 23.023 93.3932 23.052C93.0472 23.08 87.8662 24.853 81.8802 26.991ZM79.7643 35.914C61.2603 42.92 45.2353 52.628 34.0603 63.601C29.2763 68.299 28.3283 70.304 30.3133 71.53C31.0353 71.977 31.0143 72.596 30.2443 73.524C29.6303 74.264 29.2713 76.361 29.4463 78.185C29.6913 80.736 30.2803 81.573 32.0023 81.818C33.7893 82.072 37.7763 88.352 51.7523 112.923C61.3843 129.856 69.2643 144.424 69.2643 145.296C69.2643 147.722 70.6953 148.163 79.6523 148.494C90.0493 148.879 103.2 150.962 104.336 152.404C104.811 153.007 107.009 155.525 109.219 158C111.43 160.475 113.245 163.288 113.252 164.25C113.267 166.447 113.119 166.437 108.943 163.973C104.982 161.636 92.7563 158.837 89.7823 159.587C87.6763 160.117 84.0613 164.912 82.8213 168.822C81.2623 173.733 87.9422 176.197 90.0822 171.5C91.4932 168.403 93.2872 168.328 96.0182 171.25C97.9013 173.265 97.9693 173.706 96.6673 175.475C95.5312 177.02 93.5283 177.597 87.4893 178.119C78.4003 178.905 72.0793 176.882 70.1093 172.559C67.4863 166.801 58.0913 171.076 56.6653 178.675C55.6313 184.187 56.7913 190.868 59.2343 193.468C61.0203 195.369 61.2313 196.194 60.3503 197.84C59.7533 198.956 59.2643 201.238 59.2643 202.911C59.2643 205.07 58.5223 206.44 56.7123 207.626C54.7333 208.923 54.2273 209.99 54.4623 212.377C54.7363 215.169 55.1743 215.525 59.1733 216.203C64.0163 217.024 67.4822 219.697 69.2572 223.982C70.2362 226.346 69.5043 230.983 64.4253 254.633C55.5553 295.931 55.5703 295.638 62.1713 298.231C65.9473 299.715 66.2063 299.689 68.0973 297.641C69.1842 296.464 70.6383 293.588 71.3273 291.25C72.1793 288.363 73.1372 287 74.3172 287C75.7782 287 75.9313 287.543 75.2812 290.423C74.2943 294.801 75.5023 296 80.9053 296C85.8303 296 86.3703 295.408 86.4463 289.924C86.4913 286.62 86.9362 285.695 88.8223 284.978C92.4802 283.587 93.2643 280.873 93.2643 269.605C93.2643 260.063 93.4692 258.887 95.4532 257.039C96.6562 255.918 98.6523 255 99.8873 255C104.353 255 107.264 253.201 107.264 250.44C107.264 248.148 106.291 247.389 99.2643 244.197C90.0843 240.027 90.0452 239.926 92.7032 227.292C95.1242 215.779 95.6032 215 100.255 215C104.691 215 112.264 212.955 112.264 211.757C112.264 211.34 112.697 211 113.226 211C113.804 211 113.952 213.536 113.596 217.343C112.426 229.879 116.677 243.742 122.677 246.953C126.372 248.931 131.28 248.699 132.909 246.47C134.398 244.435 133.824 243.447 130.098 241.631C126.992 240.117 123.264 232.523 123.264 227.709C123.264 225.582 124.44 220.901 125.878 217.308C127.992 212.024 128.368 209.839 127.843 205.887L127.195 201L133.48 200.993C136.936 200.99 143.229 201.514 147.464 202.159C154.835 203.281 155.359 203.228 159.714 200.917C162.217 199.59 164.264 198.231 164.264 197.898C164.264 197.565 165.34 196.131 166.656 194.711C168.307 192.929 169.701 192.302 171.161 192.683C174.053 193.44 176.264 191.344 176.264 187.846C176.264 184.905 175.946 184.645 171.032 183.569C169.363 183.204 167.696 181.802 166.746 179.965C165.891 178.311 163.182 175.708 160.726 174.179L156.261 171.4L168.736 161.7C175.597 156.365 181.368 152 181.56 152C181.752 152 181.056 155.262 180.013 159.25C177.983 167.013 178.079 178.894 180.231 186.177C181.923 191.903 187.363 199.23 191.764 201.712C198.574 205.551 208.207 204.069 211.769 198.632C213.859 195.443 213.064 193.052 209.065 190.5C207.341 189.4 204.994 187.227 203.848 185.671C199.922 180.339 201.401 158.39 206.881 140.678C207.418 138.943 207.291 138.935 204.241 140.512C202.478 141.423 199.175 142.801 196.9 143.573L192.764 144.978L197.764 140.76C200.514 138.44 207.714 131.792 213.764 125.986C241.091 99.762 269.995 82.587 300.315 74.556C320.483 69.214 337.474 69.243 351.01 74.642C354.445 76.013 358.495 76.991 360.01 76.817C362.336 76.549 362.814 75.971 363.089 73.091C363.817 65.46 356.428 54.675 347.271 50.004C337.896 45.221 321.075 43.719 307.102 46.417C282.973 51.077 252.489 68.349 227.323 91.619C223.23 95.404 220.171 97.731 220.525 96.792C220.879 95.853 222.789 89.895 224.769 83.552C229.257 69.176 229.307 62.851 224.958 59.614C222.353 57.676 220.882 57.529 204.458 57.576C174.39 57.661 150.132 63.857 128.151 77.068C123.673 79.759 119.67 81.751 119.255 81.495C118.841 81.238 113.977 73.035 108.447 63.264C100.404 49.053 98.5043 44.949 98.9463 42.744C99.6203 39.39 97.8422 37 94.6732 37C93.2052 37 91.8483 36.089 91.0462 34.564L89.7643 32.128L79.7643 35.914ZM76.9413 38.423C63.7553 43.44 42.0283 57.301 33.7923 65.951C31.4493 68.412 31.0422 69.424 31.8673 70.733C32.6253 71.935 32.5233 73.178 31.4983 75.234C29.9203 78.396 31.0993 80.982 34.1363 81.021C35.1833 81.034 38.7093 86.296 44.0213 95.771C48.5623 103.872 56.3883 117.7 61.4113 126.5C66.4353 135.3 70.6312 143.39 70.7363 144.478C70.9062 146.239 71.7992 146.49 78.8452 146.755C83.2012 146.919 90.7712 147.692 95.6693 148.473C103.325 149.694 104.952 150.308 107.275 152.851C108.761 154.478 110.252 156.527 110.589 157.404C110.926 158.282 111.628 159 112.15 159C112.672 159 113.872 161.025 114.817 163.5C115.762 165.975 117.054 168 117.687 168C118.32 168 118.906 168.9 118.989 170C119.191 172.686 117.669 172.518 114.025 169.452C109.316 165.49 104.14 163.211 96.7663 161.852L89.9913 160.604L87.6062 163.552C84.6382 167.222 83.6492 170.785 85.1752 172.311C86.0622 173.198 86.9462 172.703 88.8752 170.238C90.2692 168.457 91.9393 167.012 92.5863 167.027C93.2343 167.042 95.3392 168.359 97.2632 169.955L100.763 172.855L98.6723 175.655C96.2503 178.9 92.7353 179.881 82.5143 180.168C78.5263 180.279 75.2643 180.737 75.2643 181.185C75.2643 182.465 72.2592 182.138 70.8232 180.702C70.1093 179.988 68.2282 179.425 66.6442 179.452C63.7972 179.499 63.7643 179.569 63.7643 185.479V191.459L67.5143 191.746C70.3262 191.962 71.2643 191.655 71.2643 190.517C71.2643 189.683 71.9393 189 72.7643 189C73.5892 189 74.2643 189.675 74.2643 190.5C74.2643 191.333 75.1533 192 76.2643 192C78.6712 192 78.7692 192.835 76.7072 195.777C75.3812 197.671 74.2253 198 68.9072 198C61.6582 198 60.2643 198.987 60.2643 204.117C60.2643 206.986 59.6593 208.274 57.6123 209.765C54.8453 211.781 55.0843 213.983 58.0733 214.022C61.6523 214.068 68.1643 217.905 69.6982 220.872C72.0813 225.48 71.6863 229.197 66.1463 254.304C61.4753 275.475 60.4213 281.86 59.9323 291.951C59.7803 295.065 60.0943 295.497 63.1443 296.383C67.2083 297.563 68.6693 296.125 69.6513 289.979C70.0473 287.506 70.8252 286 71.7083 286C72.4902 286 73.4153 285.1 73.7643 284C74.5052 281.665 76.2643 281.313 76.2643 283.5C76.2643 284.325 76.7142 285 77.2643 285C77.8143 285 78.2643 285.873 78.2643 286.941C78.2643 288.009 77.8143 289.16 77.2643 289.5C76.7142 289.84 76.2643 291.017 76.2643 292.117C76.2643 293.849 76.8293 294.074 80.5143 293.807C84.0472 293.552 84.8183 293.12 85.0843 291.25C85.2593 290.012 84.9223 289 84.3343 289C81.7213 289 83.5263 285.214 87.0143 283.38L90.7643 281.408L91.4942 269.062C92.3272 254.968 92.9632 253.922 101.264 253C107.919 252.261 107.069 250.135 98.4362 245.933C94.4062 243.971 90.6852 241.721 90.1673 240.933C88.3662 238.19 92.8863 215.496 95.5733 213.788C96.2283 213.371 98.8752 213.024 101.455 213.015C104.035 213.007 106.412 212.57 106.737 212.044C107.062 211.518 107.985 211.339 108.788 211.647C109.604 211.961 110.518 211.5 110.863 210.604C111.201 209.722 112.468 209 113.679 209C115.812 209 115.867 209.271 115.459 217.799C114.753 232.562 118.076 242.691 124.665 245.859C126.912 246.939 128.029 246.972 130.119 246.02L132.747 244.823L129.647 243.519C125.504 241.777 122.01 234.577 121.909 227.571C121.856 223.902 122.652 220.527 124.589 216.21C127.279 210.216 127.31 209.938 125.889 204.496L124.434 198.922L135.348 199.211C141.351 199.37 146.263 199.837 146.263 200.25C146.264 200.663 148.204 201 150.576 201C155.765 201 162.756 197.831 164.383 194.741C165.977 191.714 167.188 191.033 171.014 191.015C173.955 191.001 174.264 190.715 174.264 188C174.264 185.342 173.926 185 171.303 185C168.109 185 167.18 184.247 164.219 179.25C163.127 177.407 161.474 176 160.401 176C159.36 176 157.904 175.271 157.165 174.38C156.036 173.021 154.505 172.868 147.624 173.426C141.471 173.925 139.158 173.768 138.347 172.796C136.356 170.41 130.264 160.808 130.264 160.055C130.264 159.646 129.14 158.004 127.765 156.406C126.391 154.807 125.266 152.916 125.265 152.202C125.265 151.488 124.364 149.041 123.264 146.764C122.164 144.487 121.264 142.046 121.264 141.34C121.264 139.269 130.996 117.185 133.39 113.823L135.58 110.747L133.565 109.124C132.457 108.231 123.574 93.476 113.826 76.336C99.6752 51.455 96.2923 44.802 97.0482 43.336C98.5173 40.485 97.4043 39 93.7973 39C91.3383 39 90.3643 38.49 89.9743 37C89.2643 34.283 87.2453 34.503 76.9413 38.423ZM76.4783 62.508C86.6313 65.807 90.4873 78.963 83.2263 85.534C80.7563 87.77 80.7263 89 83.1423 89C84.1743 89 85.5752 89.67 86.2552 90.489C87.7982 92.349 89.2643 91.537 89.2643 88.823C89.2643 87.691 91.0113 85.018 93.1463 82.882C96.5473 79.482 97.6083 79 101.696 79C106.966 79 111.398 80.925 113.703 84.217C114.562 85.442 115.264 85.911 115.264 85.257C115.264 83.41 109.305 77.073 105.926 75.325C104.253 74.46 100.86 73.625 98.3862 73.469C94.4472 73.221 93.5682 72.719 91.3262 69.433C88.1982 64.852 82.7022 61.868 76.4532 61.359L71.7643 60.977L76.4783 62.508ZM60.8243 67.934C58.4773 70.527 56.3623 76.685 56.3083 81.081C56.2843 83.05 57.2853 86.678 58.5333 89.143C60.7923 93.605 60.7943 93.641 58.8903 96.9C56.4823 101.024 56.3613 109.354 58.6473 113.773C60.7473 117.835 61.4873 117.937 60.1053 113.975C56.8233 104.558 65.8043 94.711 76.1653 96.368L79.8602 96.959L79.8123 92.981L79.7643 89.004L75.1492 89.613C65.6442 90.867 58.6003 84.257 59.4973 74.926C59.7643 72.146 60.7613 69.108 61.7733 67.99C62.7643 66.895 63.3493 66 63.0743 66C62.7993 66 61.7863 66.87 60.8243 67.934ZM202.264 68.656C179.504 72.149 157.943 81.188 140.014 94.752C135.202 98.393 131.264 101.984 131.264 102.732C131.264 103.479 132.389 105.216 133.764 106.591C135.139 107.966 136.264 109.648 136.264 110.328C136.264 111.009 134.724 114.476 132.842 118.033C127.792 127.577 123.043 140.141 123.607 142.466C124.699 146.968 127.467 153.44 129.353 155.897C130.451 157.329 132.151 159.576 133.13 160.891L134.91 163.281L145.337 157.537C154.09 152.716 182.529 134.349 188.531 129.64C189.503 128.878 192.732 122.235 195.706 114.877C198.681 107.52 203.888 95.2 207.279 87.5C210.67 79.8 213.823 72.262 214.285 70.75L215.124 68L209.944 68.136C207.095 68.211 203.639 68.445 202.264 68.656ZM79.1073 76.04C72.2233 77.951 65.2722 85.124 68.3903 87.099C70.4323 88.393 71.0653 88.202 71.7363 86.089C72.5443 83.543 76.9482 80.747 81.2643 80.04C83.8252 79.62 84.7643 78.96 84.7643 77.578C84.7643 75.443 82.9923 74.961 79.1073 76.04ZM195.264 77.562C179.982 80.86 163.39 87.839 150.764 96.281C141.303 102.607 141.065 102.878 142.796 105.349C145.062 108.585 144.601 113.907 141.689 118.108C140.273 120.152 137.308 126.012 135.101 131.131C131.264 140.032 131.146 140.613 132.406 144.431C133.131 146.626 134.641 149.489 135.762 150.792L137.8 153.162L145.282 148.962C151.965 145.21 178.396 127.911 182.287 124.741C183.125 124.058 186.876 116.128 190.623 107.118C194.369 98.108 198.946 87.42 200.793 83.368C202.787 78.991 203.666 76.032 202.957 76.079C202.301 76.123 198.839 76.79 195.264 77.562ZM313.055 79.388C305.327 80.766 304.456 81.32 306.371 83.634C307.921 85.507 314.936 88.946 317.264 88.974C318.089 88.984 320.674 86.519 323.009 83.496L327.254 78L323.509 78.096C321.449 78.149 316.745 78.73 313.055 79.388ZM335.668 81.974C333.379 82.9 327.091 89.827 324.437 94.349C322.873 97.012 322.448 97.161 317.937 96.637C311.55 95.895 302.853 91.829 300.734 88.594C298.644 85.405 296.262 85.291 293.553 88.25C290.549 91.532 289.99 94.409 291.605 98.274C293.452 102.695 298.459 105.727 306.792 107.47C310.461 108.238 313.595 109.009 313.756 109.183C313.916 109.357 310.697 115.125 306.601 122C302.505 128.875 297.813 137.104 296.176 140.287C294.237 144.055 292.25 146.472 290.481 147.213C286.865 148.729 267.108 148.592 263.327 147.026C259.452 145.421 256.709 141.374 258.243 139.525C260.041 137.359 265.942 134.939 267.742 135.63C269.028 136.123 269.33 137.308 269.083 140.884L268.764 145.5L273.461 145.803C279.443 146.188 282.266 143.765 282.26 138.25C282.25 127.714 271.667 121.578 257.812 124.075C232.532 128.632 208.172 164.829 218.281 182.816C221.253 188.104 226.177 191.496 233.724 193.454C249.474 197.54 265.769 193.189 273.215 182.908C277.763 176.631 279.586 170.895 279.058 164.526L278.599 159H283.334H288.068L286.733 163.437C285.998 165.878 285.091 170.988 284.716 174.794C283.849 183.594 285.833 188.504 291.157 190.729C298.014 193.594 309.63 189.831 318.773 181.783C321.137 179.702 323.339 178 323.667 178C323.996 178 324.264 179.169 324.264 180.599C324.264 184.218 327.114 189.849 329.626 191.194C332.772 192.877 342.448 192.474 346.265 190.499C348.088 189.557 351.826 186.697 354.572 184.143C357.95 181.003 359.716 179.936 360.031 180.847C361.035 183.759 366.969 189.424 370.764 191.093C377.008 193.84 389.522 195.179 398.401 194.049C417.383 191.635 430.045 182.604 439.246 164.918C443.311 157.105 444.131 153.654 442.207 152.465C439.791 150.971 436.323 153.183 433.249 158.179C428.449 165.98 419.98 174.31 413.521 177.583C408.764 179.993 406.548 180.495 400.764 180.474C380.207 180.396 378.243 164.625 396.405 145.477C401.664 139.933 403.086 137.932 401.389 138.466C399.84 138.954 399.236 138.854 399.653 138.18C400.704 136.479 407.183 134.763 409.94 135.455C412.25 136.035 412.451 136.458 411.932 139.656C411.615 141.612 410.41 145.026 409.255 147.242C406.594 152.346 407.213 154 411.782 154C419.672 154 424.49 148.197 424.608 138.551C424.844 119.298 396.506 118.184 377.684 136.708C372.359 141.948 369.028 146.587 362.166 158.315C358.229 165.045 350.664 173 348.202 173C345.405 173 343.972 170.37 344.688 166.554C345.59 161.748 348.518 155.313 355.52 142.752C360.759 133.354 361.339 131.794 360.138 130.339C358.241 128.041 350.781 124.864 348.941 125.57C346.953 126.333 336.245 142.628 331.791 151.67C326.761 161.88 312.977 173.665 307.05 172.824C300.852 171.945 306.767 159.143 328.128 127.203L338.111 112.277L331.205 111.698C320.542 110.804 318.978 109.068 328.802 109.03C333.223 109.014 342.223 108.329 348.802 107.508C355.381 106.687 360.879 106.012 361.02 106.008C361.161 106.004 359.924 107.868 358.27 110.15C355.113 114.508 354.316 119.652 356.464 121.8C358.561 123.897 363.748 123.157 367.864 120.172C372.101 117.099 380.264 107.117 380.264 105.009C380.264 103.962 383.073 103.841 394.393 104.401C402.164 104.786 410.71 105.516 413.384 106.023C416.057 106.53 418.941 106.678 419.791 106.351C421.966 105.516 424.189 100.826 424.913 95.543C425.495 91.297 425.371 90.985 422.646 89.842C416.235 87.153 385.121 89.536 360.432 94.609C350.063 96.739 349.571 96.441 353.753 90.574C357.939 84.7 358.097 83.267 354.699 81.975C351.595 80.795 338.586 80.794 335.668 81.974ZM95.0143 83.116C93.3893 84.029 93.3773 84.319 94.8573 87.179C95.8733 89.144 96.2543 91.57 95.9093 93.88C94.7853 101.406 94.7973 102.309 96.0283 102.737C97.7363 103.33 100.274 97.002 100.222 92.282C100.199 90.202 99.4122 87.067 98.4722 85.316C97.0832 82.726 96.4372 82.315 95.0143 83.116ZM274.764 91.857C257.711 99.962 234.165 116.335 222.547 128.168L216.33 134.5L213.318 146.438C210.418 157.934 209.826 162.888 212.218 155.639C215.315 146.256 228.403 130.541 238.722 123.815C251.622 115.407 268.669 113.531 278.708 119.415C283.623 122.295 289.264 129.766 289.264 133.396C289.264 136.319 290.527 134.712 296.686 123.953L302.076 114.538L297.492 112.798C292.342 110.843 285.979 105.141 284.227 100.91C283.587 99.366 283.222 95.83 283.414 93.051C283.607 90.272 283.539 88.011 283.264 88.027C282.989 88.042 279.164 89.766 274.764 91.857ZM86.2643 95.5C85.5793 96.325 84.1743 97 83.1423 97C80.5953 97 80.7753 97.88 84.0143 101.261C86.3743 103.724 86.7643 104.962 86.7643 109.985C86.7643 114.85 86.3423 116.29 84.2643 118.511C81.3303 121.647 78.8903 123.076 74.7643 124.071L71.7643 124.795L74.7643 124.892C81.9963 125.125 89.7213 120.884 92.7583 115.012C93.9543 112.698 94.9753 112.186 99.1973 111.78C105.64 111.161 111.072 107.566 114.137 101.893L116.509 97.5L113.343 101.215C107.575 107.982 98.5462 108.134 92.5143 101.568C90.7272 99.622 89.2643 97.123 89.2643 96.015C89.2643 93.629 87.9973 93.412 86.2643 95.5ZM68.2832 98.967C67.0092 99.773 67.0872 100.286 68.8453 102.64C72.1183 107.025 75.7063 109.183 80.6503 109.74C84.7703 110.204 85.2643 110.046 85.2643 108.262C85.2643 106.667 84.4063 106.148 81.0153 105.693C77.8343 105.267 75.9443 104.228 73.5013 101.562C71.7063 99.603 70.1312 98.007 70.0013 98.015C69.8703 98.024 69.0973 98.452 68.2832 98.967ZM242.975 154.644C240.931 157.748 238.743 162.008 238.113 164.111C234.136 177.383 253.099 186.593 263.943 176.655C266.721 174.11 267.554 172.491 267.904 168.966C268.538 162.573 266.807 160.028 260.418 157.954C257.271 156.933 253.553 154.735 251.376 152.61C249.343 150.624 247.457 149 247.186 149C246.914 149 245.019 151.54 242.975 154.644ZM395.778 157.75C394.372 159.813 392.737 163.283 392.146 165.463C391.176 169.042 391.286 169.599 393.279 171.213C394.765 172.416 397.182 173 400.678 173C407.774 173 415.029 169.253 420.435 162.796L424.668 157.74L421.216 159.569C414.057 163.361 401.915 161.207 400.527 155.898C399.797 153.104 398.639 153.556 395.778 157.75ZM107.077 183.683C107.798 183.972 108.661 183.936 108.993 183.604C109.325 183.272 108.735 183.036 107.681 183.079C106.516 183.127 106.279 183.364 107.077 183.683ZM105.764 190C106.104 190.55 107.48 191 108.823 191C110.166 191 111.264 190.55 111.264 190C111.264 189.45 109.887 189 108.205 189C106.42 189 105.403 189.417 105.764 190ZM290.264 194.507C268.154 199.897 252.218 216.904 252.13 235.203C252.082 245.235 257.749 252.397 268.743 256.199L273.764 257.935L270.061 257.967C266.643 257.997 266.278 258.289 265.317 261.75C263.003 270.082 264.996 276.814 270.924 280.696C273.202 282.186 275.773 282.496 285.722 282.476C296.618 282.454 298.598 282.155 306.525 279.341C318.244 275.18 325.172 270.894 333.743 262.498C348.742 247.807 355.241 225.675 348.459 212.383C346.244 208.041 339.154 201.025 334.628 198.696C333.053 197.885 328.679 196.272 324.909 195.111C316.806 192.616 299.276 192.311 290.264 194.507ZM105.931 198.667C104.46 200.137 105.421 201.859 108.264 202.85C109.914 203.425 111.264 204.594 111.264 205.448C111.264 206.448 112.178 207 113.831 207C115.808 207 116.279 206.597 115.879 205.25C115.593 204.288 115.064 202.262 114.703 200.75C114.133 198.36 113.56 198 110.322 198C108.274 198 106.297 198.3 105.931 198.667ZM107.514 200.25C107.742 200.938 108.792 201.65 109.847 201.834C110.901 202.018 112.327 202.892 113.014 203.775C114.516 205.706 114.602 205.018 113.289 201.565C112.586 199.717 111.585 199 109.705 199C108.064 199 107.252 199.463 107.514 200.25ZM293.093 201.34C285.142 204.214 282.257 206.162 275.931 212.925C270.216 219.035 266.282 227.021 266.289 232.5C266.294 236.611 267.993 241.092 269.764 241.666C270.314 241.845 272.538 238.535 274.707 234.31C279.396 225.178 289.147 210.119 292.232 207.244C295.895 203.832 308.894 203.694 308.662 207.07C308.606 207.889 305.62 212.595 302.026 217.529C298.433 222.463 292.507 231.348 288.857 237.273C283.491 245.986 282.522 248.162 283.791 248.649C285.377 249.258 290.888 248.662 295.014 247.435C298.324 246.452 297.993 250.152 294.413 254.16C291.927 256.941 290.782 257.407 285.486 257.79L279.411 258.23L277.338 263.05C273.686 271.538 274.885 276.282 281.105 277.957C285.249 279.073 293.445 277.482 299.565 274.374C310.879 268.627 325.531 254.606 331.057 244.236C344.528 218.963 335.292 200.34 308.764 199.286C301.178 198.984 298.716 199.307 293.093 201.34ZM314.157 213.25C312.213 216.137 307.617 222.85 303.943 228.166C300.27 233.483 297.264 238.095 297.264 238.416C297.264 238.737 297.899 239 298.675 239C300.895 239 305.266 244.875 305.242 247.827C305.207 252.06 301.787 258.499 298.067 261.337C296.188 262.77 292.202 264.566 289.208 265.33C284.957 266.413 283.694 267.187 283.444 268.859C283.017 271.721 286.031 271.666 293.288 268.68C305.521 263.647 319.137 251.009 324.95 239.294C329.677 229.764 330.644 219.969 327.377 214.683C325.674 211.927 320.209 208 318.077 208C317.865 208 316.101 210.363 314.157 213.25ZM373.368 217.535C369.97 221.405 369.15 226.635 371.782 227.645C374.342 228.628 379.187 225.931 382.813 221.505C386.652 216.821 387.01 215.5 384.682 214.607C380.43 212.975 376.472 214 373.368 217.535ZM390.504 229.544C389.291 230.394 385.31 235.681 381.656 241.294C370.782 257.999 369.926 259.175 367.484 260.775C365.414 262.132 364.973 262.137 363.659 260.823C362.345 259.509 362.366 258.77 363.843 254.419C364.761 251.713 367.257 246.422 369.388 242.66C374.161 234.239 374.268 232.325 370.066 230.559C368.308 229.819 366.395 229.399 365.816 229.625C364.203 230.255 357.804 240.62 353.764 249.146C346.201 265.106 348.955 276.822 359.782 274.752C361.147 274.491 362.264 274.449 362.264 274.659C362.264 274.868 361.183 277.701 359.861 280.953C356.702 288.727 355.153 296.197 355.913 299.996C356.531 303.086 360.754 307.337 362.596 306.723C363.142 306.541 364.337 303.716 365.251 300.446C369.208 286.29 384.234 260.993 394.123 251.838C404.16 242.546 413.264 238.585 413.264 243.508C413.264 246.602 409.366 252.631 404.306 257.364C399.75 261.626 386.412 269 383.26 269C382.636 269 382.269 270.012 382.444 271.25C382.744 273.362 383.223 273.496 390.264 273.43C396.686 273.369 398.686 272.888 404.175 270.084C416.948 263.559 426.613 250.335 426.714 239.246C426.758 234.466 426.42 233.534 423.831 231.306C418.164 226.428 409.028 229.903 396.855 241.568C394.227 244.086 391.875 245.945 391.629 245.699C390.911 244.98 400.801 234.586 403.658 233.057C406.594 231.485 407.048 229.515 404.682 228.607C401.568 227.412 392.713 227.997 390.504 229.544ZM152.136 242.25C151.994 242.529 151.686 244.699 151.002 250.25C150.622 253.335 150.851 254 152.295 254C154.308 254 155.264 252.068 155.264 248C155.264 244.56 154.365 242 153.157 242C152.666 242 152.207 242.113 152.136 242.25ZM344.264 332.06C344.264 333.682 349.737 336.016 357.014 337.497C361.994 338.511 361.24 335.536 356.014 333.552C351.468 331.826 344.264 330.911 344.264 332.06ZM340.264 332.393C340.264 332.609 340.939 333.045 341.764 333.362C342.589 333.678 343.264 333.501 343.264 332.969C343.264 332.436 342.589 332 341.764 332C340.939 332 340.264 332.177 340.264 332.393ZM354.077 335.683C354.798 335.972 355.661 335.936 355.993 335.604C356.325 335.272 355.735 335.036 354.681 335.079C353.516 335.127 353.279 335.364 354.077 335.683Z" fill="#158CA4"/>
<path d="M105.764 190C106.104 190.55 107.48 191 108.823 191C110.166 191 111.264 190.55 111.264 190C111.264 189.45 109.887 189 108.205 189C106.42 189 105.403 189.417 105.764 190Z" fill="#158CA4"/>
<path d="M107.077 183.683C107.798 183.972 108.661 183.936 108.993 183.604C109.325 183.272 108.735 183.036 107.681 183.079C106.516 183.127 106.279 183.364 107.077 183.683Z" fill="#158CA4"/>
</svg>
